<?xml version="1.0" standalone="no"?>
<!DOCTYPE svg PUBLIC "-//W3C//DTD SVG 20010904//EN"
 "http://www.w3.org/TR/2001/REC-SVG-20010904/DTD/svg10.dtd">
<svg version="1.0" xmlns="http://www.w3.org/2000/svg"
 width="256.000000pt" height="256.000000pt" viewBox="0 0 256.000000 256.000000"
 preserveAspectRatio="xMidYMid meet">

<g transform="translate(0.000000,256.000000) scale(0.100000,-0.100000)"
fill="#000000" stroke="none">
<path d="M1155 2219 c-219 -30 -407 -129 -568 -299 -345 -363 -340 -938 12
-1303 85 -89 166 -147 282 -201 115 -53 185 -73 310 -86 111 -11 234 0 349 31
80 22 247 95 237 105 -3 3 -14 1 -24 -4 -11 -6 -57 -18 -103 -28 -110 -22
-293 -15 -398 15 -258 75 -474 269 -573 516 -43 108 -60 201 -60 327 1 390
252 720 636 833 73 22 112 27 210 28 66 1 140 -1 165 -5 l45 -7 -41 18 c-115
52 -336 80 -479 60z"/>
<path d="M1325 1875 l-450 -193 3 -34 c2 -18 5 -34 7 -36 2 -2 81 17 176 42
96 24 345 88 554 141 209 53 381 98 383 99 14 14 -178 177 -206 175 -9 -1
-219 -88 -467 -194z"/>
<path d="M1505 1660 c-313 -69 -582 -130 -597 -133 -24 -6 -28 -13 -28 -42 0
-24 5 -35 15 -35 13 0 130 14 900 105 380 45 375 44 375 57 0 17 -70 156 -83
166 -8 6 -226 -38 -582 -118z"/>
<path d="M2070 1464 c-31 -5 -1145 -94 -1171 -94 -15 0 -19 -7 -19 -40 l0 -40
108 5 c59 3 361 10 672 16 311 6 567 13 569 15 2 2 0 34 -5 71 l-9 68 -60 1
c-33 1 -71 0 -85 -2z"/>
<path d="M1468 1242 l-588 -2 0 -40 c0 -38 2 -40 30 -40 17 0 315 -20 662 -45
347 -25 633 -43 636 -40 7 7 21 92 21 135 l1 36 -87 -1 c-49 0 -352 -1 -675
-3z"/>
<path d="M880 1062 l0 -38 63 -13 c34 -7 299 -64 589 -127 290 -63 534 -114
542 -114 18 0 100 155 93 174 -3 7 -101 22 -258 39 -140 16 -427 48 -639 73
-212 24 -386 44 -387 44 -2 0 -3 -17 -3 -38z"/>
<path d="M880 910 c0 -21 6 -40 13 -43 6 -3 214 -91 460 -196 l448 -191 42 29
c47 33 137 118 137 129 0 4 -87 31 -193 60 -156 42 -712 196 -869 240 l-38 10
0 -38z"/>
</g>
</svg>
